<svg width="42" height="40" viewBox="0 0 50 48" fill="none" xmlns="http://www.w3.org/2000/svg">
<path d="M21.25 27.4375C21.25 27.1889 21.3488 26.9504 21.5246 26.7746C21.7004 26.5988 21.9389 26.5 22.1875 26.5H27.8125C28.0611 26.5 28.2996 26.5988 28.4754 26.7746C28.6512 26.9504 28.75 27.1889 28.75 27.4375C28.75 27.6862 28.6512 27.9246 28.4754 28.1004C28.2996 28.2763 28.0611 28.375 27.8125 28.375H22.1875C21.9389 28.375 21.7004 28.2763 21.5246 28.1004C21.3488 27.9246 21.25 27.6862 21.25 27.4375ZM15.625 19.1163C15.625 16.675 17.9406 14.8094 20.3687 15.0363C23.4496 15.3236 26.5504 15.3236 29.6313 15.0363C32.0594 14.8094 34.375 16.675 34.375 19.1163V21.2857C34.3838 21.7008 34.2442 22.1055 33.9812 22.4268C33.7183 22.7482 33.3493 22.9652 32.9406 23.0388C31.3562 23.3144 28.5531 23.6875 25 23.6875C21.4469 23.6875 18.6437 23.3125 17.0594 23.0388C16.6507 22.9652 16.2817 22.7482 16.0188 22.4268C15.7558 22.1055 15.6162 21.7008 15.625 21.2857V19.1163ZM24.1412 17.5657C24.0682 17.5532 23.9932 17.5583 23.9225 17.5805C23.8517 17.6026 23.7873 17.6412 23.7344 17.6932L22.0094 19.3807C20.8361 19.3103 19.6659 19.1958 18.5012 19.0375C18.3806 19.0255 18.2599 19.0608 18.1647 19.1359C18.0694 19.211 18.007 19.32 17.9905 19.4402C17.974 19.5603 18.0047 19.6822 18.0762 19.7802C18.1476 19.8782 18.2543 19.9447 18.3737 19.9657C19.405 20.1082 20.6837 20.245 22.1612 20.3275C22.2263 20.3312 22.2915 20.3212 22.3525 20.2983C22.4135 20.2754 22.4691 20.24 22.5156 20.1944L23.9294 18.8144L25.5175 22.0207C25.551 22.0879 25.6001 22.1462 25.6608 22.1905C25.7214 22.2348 25.7918 22.2638 25.8661 22.2752C25.9404 22.2866 26.0163 22.28 26.0874 22.2559C26.1586 22.2319 26.2229 22.191 26.275 22.1369L28.0225 20.3182C29.2278 20.2471 30.43 20.1295 31.6263 19.9657C31.7457 19.9447 31.8524 19.8782 31.9238 19.7802C31.9953 19.6822 32.026 19.5603 32.0095 19.4402C31.993 19.32 31.9306 19.211 31.8353 19.1359C31.7401 19.0608 31.6194 19.0255 31.4987 19.0375C30.49 19.1763 29.2356 19.3094 27.7863 19.3919C27.6682 19.3985 27.5571 19.4494 27.475 19.5344L26.0613 21.0063L24.4825 17.8188C24.4496 17.7527 24.4015 17.6953 24.3422 17.6513C24.2829 17.6073 24.214 17.578 24.1412 17.5657Z" fill="black"/>
<path d="M25.9375 7.4988C26.295 7.29242 26.5743 6.97386 26.7323 6.59253C26.8902 6.2112 26.9179 5.7884 26.8111 5.38971C26.7043 4.99103 26.4689 4.63873 26.1414 4.38746C25.814 4.1362 25.4128 4 25 4C24.5872 4 24.186 4.1362 23.8586 4.38746C23.5311 4.63873 23.2957 4.99103 23.1889 5.38971C23.0821 5.7884 23.1098 6.2112 23.2677 6.59253C23.4257 6.97386 23.705 7.29242 24.0625 7.4988V9.62505H20.3125C18.0747 9.62505 15.9286 10.514 14.3463 12.0963C12.7639 13.6787 11.875 15.8248 11.875 18.0625V19C11.3777 19 10.9008 19.1976 10.5492 19.5492C10.1975 19.9009 10 20.3778 10 20.875V24.625C10 25.1223 10.1975 25.5992 10.5492 25.9509C10.9008 26.3025 11.3777 26.5 11.875 26.5V28.375C11.875 29.3696 12.2701 30.3234 12.9733 31.0267C13.6766 31.73 14.6304 32.125 15.625 32.125H34.375C35.3696 32.125 36.3234 31.73 37.0266 31.0267C37.7299 30.3234 38.125 29.3696 38.125 28.375V26.5C38.6223 26.5 39.0992 26.3025 39.4508 25.9509C39.8025 25.5992 40 25.1223 40 24.625V20.875C40 20.3778 39.8025 19.9009 39.4508 19.5492C39.0992 19.1976 38.6223 19 38.125 19V18.0625C38.125 15.8248 37.2361 13.6787 35.6537 12.0963C34.0714 10.514 31.9253 9.62505 29.6875 9.62505H25.9375V7.4988ZM36.25 18.0625V28.375C36.25 28.8723 36.0525 29.3492 35.7008 29.7009C35.3492 30.0525 34.8723 30.25 34.375 30.25H15.625C15.1277 30.25 14.6508 30.0525 14.2992 29.7009C13.9475 29.3492 13.75 28.8723 13.75 28.375V18.0625C13.75 16.3221 14.4414 14.6529 15.6721 13.4222C16.9028 12.1915 18.572 11.5 20.3125 11.5H29.6875C31.428 11.5 33.0972 12.1915 34.3279 13.4222C35.5586 14.6529 36.25 16.3221 36.25 18.0625Z" fill="black"/>
<path d="M43.75 3.125C44.5788 3.125 45.3737 3.45424 45.9597 4.04029C46.5458 4.62634 46.875 5.4212 46.875 6.25V31.25C46.875 32.0788 46.5458 32.8737 45.9597 33.4597C45.3737 34.0458 44.5788 34.375 43.75 34.375H13.7937C12.1363 34.3754 10.5468 35.0341 9.375 36.2063L3.125 42.4563V6.25C3.125 5.4212 3.45424 4.62634 4.04029 4.04029C4.62634 3.45424 5.4212 3.125 6.25 3.125H43.75ZM6.25 0C4.5924 0 3.00269 0.65848 1.83058 1.83058C0.65848 3.00269 0 4.5924 0 6.25L0 46.2281C6.56715e-05 46.5373 0.0918518 46.8395 0.263741 47.0965C0.435631 47.3535 0.679897 47.5537 0.965623 47.6718C1.25135 47.7899 1.56569 47.8206 1.86886 47.76C2.17203 47.6993 2.45041 47.5501 2.66875 47.3312L11.5844 38.4156C12.1703 37.8295 12.965 37.5002 13.7937 37.5H43.75C45.4076 37.5 46.9973 36.8415 48.1694 35.6694C49.3415 34.4973 50 32.9076 50 31.25V6.25C50 4.5924 49.3415 3.00269 48.1694 1.83058C46.9973 0.65848 45.4076 0 43.75 0L6.25 0Z" fill="black"/>
</svg>
