<svg width="50" height="50" viewBox="0 0 50 50" fill="none" xmlns="http://www.w3.org/2000/svg">
<path fill-rule="evenodd" clip-rule="evenodd" d="M25 46.875C24.5856 46.875 24.1882 46.7104 23.8952 46.4174C23.6021 46.1243 23.4375 45.7269 23.4375 45.3125V8.45937L13.6063 18.2938C13.3129 18.5871 12.9149 18.752 12.5 18.752C12.0851 18.752 11.6872 18.5871 11.3938 18.2938C11.1004 18.0004 10.9355 17.6024 10.9355 17.1875C10.9355 16.7726 11.1004 16.3746 11.3938 16.0812L23.8938 3.58125C24.0389 3.43574 24.2113 3.32029 24.4012 3.24152C24.591 3.16275 24.7945 3.12221 25 3.12221C25.2055 3.12221 25.409 3.16275 25.5989 3.24152C25.7887 3.32029 25.9611 3.43574 26.1063 3.58125L38.6063 16.0812C38.8997 16.3746 39.0645 16.7726 39.0645 17.1875C39.0645 17.6024 38.8997 18.0004 38.6063 18.2938C38.3129 18.5871 37.9149 18.752 37.5 18.752C37.0851 18.752 36.6872 18.5871 36.3938 18.2938L26.5625 8.45937V45.3125C26.5625 45.7269 26.3979 46.1243 26.1049 46.4174C25.8118 46.7104 25.4144 46.875 25 46.875Z" fill="black"/>
</svg>
