<svg width="50" height="50" viewBox="0 0 50 50" fill="none" xmlns="http://www.w3.org/2000/svg">
<path fill-rule="evenodd" clip-rule="evenodd" d="M26.1062 5.14375C26.2517 5.28889 26.3672 5.46132 26.446 5.65115C26.5247 5.84097 26.5653 6.04448 26.5653 6.25C26.5653 6.45552 26.5247 6.65903 26.446 6.84886C26.3672 7.03868 26.2517 7.21111 26.1062 7.35625L8.45936 25L26.1062 42.6437C26.3996 42.9371 26.5645 43.3351 26.5645 43.75C26.5645 44.1649 26.3996 44.5629 26.1062 44.8563C25.8128 45.1496 25.4149 45.3145 25 45.3145C24.5851 45.3145 24.1871 45.1496 23.8937 44.8563L5.14374 26.1063C4.99823 25.9611 4.88278 25.7887 4.80401 25.5989C4.72524 25.409 4.68469 25.2055 4.68469 25C4.68469 24.7945 4.72524 24.591 4.80401 24.4011C4.88278 24.2113 4.99823 24.0389 5.14374 23.8937L23.8937 5.14375C24.0389 4.99824 24.2113 4.88279 24.4011 4.80402C24.591 4.72525 24.7945 4.68471 25 4.68471C25.2055 4.68471 25.409 4.72525 25.5988 4.80402C25.7887 4.88279 25.9611 4.99824 26.1062 5.14375Z" fill="#28516F"/>
<path fill-rule="evenodd" clip-rule="evenodd" d="M38.6062 5.14375C38.7517 5.28889 38.8672 5.46132 38.946 5.65115C39.0247 5.84097 39.0653 6.04448 39.0653 6.25C39.0653 6.45552 39.0247 6.65903 38.946 6.84886C38.8672 7.03868 38.7517 7.21111 38.6062 7.35625L20.9594 25L38.6062 42.6437C38.7515 42.789 38.8667 42.9615 38.9454 43.1513C39.024 43.3411 39.0645 43.5446 39.0645 43.75C39.0645 43.9554 39.024 44.1589 38.9454 44.3487C38.8667 44.5385 38.7515 44.711 38.6062 44.8563C38.461 45.0015 38.2885 45.1168 38.0987 45.1954C37.9089 45.274 37.7054 45.3145 37.5 45.3145C37.2945 45.3145 37.0911 45.274 36.9013 45.1954C36.7115 45.1168 36.539 45.0015 36.3937 44.8563L17.6437 26.1063C17.4982 25.9611 17.3828 25.7887 17.304 25.5989C17.2252 25.409 17.1847 25.2055 17.1847 25C17.1847 24.7945 17.2252 24.591 17.304 24.4011C17.3828 24.2113 17.4982 24.0389 17.6437 23.8937L36.3937 5.14375C36.5389 4.99824 36.7113 4.88279 36.9011 4.80402C37.091 4.72525 37.2945 4.68471 37.5 4.68471C37.7055 4.68471 37.909 4.72525 38.0988 4.80402C38.2887 4.88279 38.4611 4.99824 38.6062 5.14375Z" fill="#28516F"/>
</svg>
