<svg width="35" height="35" viewBox="0 0 35 35" fill="none" xmlns="http://www.w3.org/2000/svg">
<path d="M30.625 0C31.7853 0 32.8981 0.482249 33.7186 1.34066C34.5391 2.19907 35 3.36332 35 4.57729V33.8559C35 34.0823 34.9357 34.3037 34.8154 34.4919C34.6951 34.6801 34.5241 34.8267 34.3241 34.9132C34.1241 34.9997 33.904 35.0222 33.6918 34.9778C33.4796 34.9334 33.2847 34.8241 33.1319 34.6638L26.8909 28.1343C26.4808 27.7051 25.9245 27.4639 25.3444 27.4637H4.375C3.21468 27.4637 2.10188 26.9815 1.28141 26.1231C0.460936 25.2647 0 24.1004 0 22.8864V4.57729C0 3.36332 0.460936 2.19907 1.28141 1.34066C2.10188 0.482249 3.21468 0 4.375 0L30.625 0Z" fill="#ffffff"/>
</svg>
