<svg width="52" height="12" viewBox="0 0 52 12" fill="none" xmlns="http://www.w3.org/2000/svg">
<path d="M6 12C4.4087 12 2.88258 11.3679 1.75736 10.2426C0.632141 9.11742 0 7.5913 0 6C0 4.4087 0.632141 2.88258 1.75736 1.75736C2.88258 0.63214 4.4087 0 6 0C7.5913 0 9.11742 0.63214 10.2426 1.75736C11.3679 2.88258 12 4.4087 12 6C12 7.5913 11.3679 9.11742 10.2426 10.2426C9.11742 11.3679 7.5913 12 6 12ZM26 12C24.4087 12 22.8826 11.3679 21.7574 10.2426C20.6321 9.11742 20 7.5913 20 6C20 4.4087 20.6321 2.88258 21.7574 1.75736C22.8826 0.63214 24.4087 0 26 0C27.5913 0 29.1174 0.63214 30.2426 1.75736C31.3679 2.88258 32 4.4087 32 6C32 7.5913 31.3679 9.11742 30.2426 10.2426C29.1174 11.3679 27.5913 12 26 12ZM46 12C44.4087 12 42.8826 11.3679 41.7574 10.2426C40.6321 9.11742 40 7.5913 40 6C40 4.4087 40.6321 2.88258 41.7574 1.75736C42.8826 0.63214 44.4087 0 46 0C47.5913 0 49.1174 0.63214 50.2426 1.75736C51.3679 2.88258 52 4.4087 52 6C52 7.5913 51.3679 9.11742 50.2426 10.2426C49.1174 11.3679 47.5913 12 46 12Z" fill="#F6EA5D"/>
</svg>
