<svg width="42" height="42" viewBox="0 0 50 50" fill="none" xmlns="http://www.w3.org/2000/svg">
<path d="M18.1031 1.12501C18.6892 0.539163 19.4839 0.210052 20.3125 0.210052C21.1412 0.210052 21.9359 0.539163 22.5219 1.12501L24.5438 3.14376C24.8372 3.43716 25.002 3.83509 25.002 4.25001C25.002 4.66493 24.8372 5.06286 24.5438 5.35626C24.2504 5.64966 23.8524 5.81448 23.4375 5.81448C23.0226 5.81448 22.6247 5.64966 22.3313 5.35626L20.3125 3.33439L6.25002 17.3969V37.0625C6.25002 37.4769 6.41464 37.8743 6.70767 38.1674C7.00069 38.4604 7.39812 38.625 7.81252 38.625C8.22692 38.625 8.62435 38.7896 8.91737 39.0827C9.2104 39.3757 9.37502 39.7731 9.37502 40.1875C9.37502 40.6019 9.2104 40.9993 8.91737 41.2924C8.62435 41.5854 8.22692 41.75 7.81252 41.75C6.56932 41.75 5.37703 41.2562 4.49796 40.3771C3.61888 39.498 3.12502 38.3057 3.12502 37.0625V20.5219L2.66877 20.9813C2.37537 21.2747 1.97744 21.4395 1.56252 21.4395C1.1476 21.4395 0.749666 21.2747 0.456271 20.9813C0.162875 20.6879 -0.00195312 20.2899 -0.00195312 19.875C-0.00195313 19.4601 0.162875 19.0622 0.456271 18.7688L18.1031 1.12501ZM27.4781 4.25001C28.0642 3.66416 28.8589 3.33505 29.6875 3.33505C30.5162 3.33505 31.3109 3.66416 31.8969 4.25001L37.5 9.85314V5.81251C37.5 5.39811 37.6646 5.00068 37.9577 4.70766C38.2507 4.41463 38.6481 4.25001 39.0625 4.25001H42.1875C42.6019 4.25001 42.9993 4.41463 43.2924 4.70766C43.5854 5.00068 43.75 5.39811 43.75 5.81251V16.1031L49.5438 21.8938C49.8372 22.1872 50.002 22.5851 50.002 23C50.002 23.4149 49.8372 23.8129 49.5438 24.1063C49.2504 24.3997 48.8524 24.5645 48.4375 24.5645C48.0226 24.5645 47.6247 24.3997 47.3313 24.1063L46.875 23.6469V40.1875C46.875 41.4307 46.3812 42.623 45.5021 43.5021C44.623 44.3812 43.4307 44.875 42.1875 44.875H17.1875C15.9443 44.875 14.752 44.3812 13.873 43.5021C12.9939 42.623 12.5 41.4307 12.5 40.1875V23.6469L12.0438 24.1063C11.8985 24.2515 11.726 24.3668 11.5362 24.4454C11.3464 24.524 11.143 24.5645 10.9375 24.5645C10.7321 24.5645 10.5286 24.524 10.3388 24.4454C10.149 24.3668 9.97655 24.2515 9.83127 24.1063C9.686 23.961 9.57076 23.7885 9.49214 23.5987C9.41351 23.4089 9.37305 23.2055 9.37305 23C9.37305 22.7946 9.41351 22.5911 9.49214 22.4013C9.57076 22.2115 9.686 22.039 9.83127 21.8938L27.4781 4.25001ZM29.6875 6.45939L15.625 20.5219V40.1875C15.625 40.6019 15.7896 40.9993 16.0827 41.2924C16.3757 41.5854 16.7731 41.75 17.1875 41.75H42.1875C42.6019 41.75 42.9993 41.5854 43.2924 41.2924C43.5854 40.9993 43.75 40.6019 43.75 40.1875V20.5219L29.6875 6.45939Z" fill="black"/>
</svg>
