<svg width="50" height="50" viewBox="0 0 50 50" fill="none" xmlns="http://www.w3.org/2000/svg">
<g clip-path="url(#clip0_217_22)">
<path d="M18.1031 3.12501C18.6892 2.53916 19.4839 2.21005 20.3125 2.21005C21.1412 2.21005 21.9359 2.53916 22.5219 3.12501L24.5438 5.14376C24.8372 5.43716 25.002 5.83509 25.002 6.25001C25.002 6.66493 24.8372 7.06286 24.5438 7.35626C24.2504 7.64966 23.8524 7.81448 23.4375 7.81448C23.0226 7.81448 22.6247 7.64966 22.3313 7.35626L20.3125 5.33439L6.25002 19.3969V39.0625C6.25002 39.4769 6.41464 39.8743 6.70767 40.1674C7.00069 40.4604 7.39812 40.625 7.81252 40.625C8.22692 40.625 8.62435 40.7896 8.91737 41.0827C9.2104 41.3757 9.37502 41.7731 9.37502 42.1875C9.37502 42.6019 9.2104 42.9993 8.91737 43.2924C8.62435 43.5854 8.22692 43.75 7.81252 43.75C6.56932 43.75 5.37703 43.2562 4.49796 42.3771C3.61888 41.498 3.12502 40.3057 3.12502 39.0625V22.5219L2.66877 22.9813C2.37537 23.2747 1.97744 23.4395 1.56252 23.4395C1.1476 23.4395 0.749666 23.2747 0.456271 22.9813C0.162875 22.6879 -0.00195312 22.2899 -0.00195312 21.875C-0.00195313 21.4601 0.162875 21.0622 0.456271 20.7688L18.1031 3.12501ZM27.4781 6.25001C28.0642 5.66416 28.8589 5.33505 29.6875 5.33505C30.5162 5.33505 31.3109 5.66416 31.8969 6.25001L37.5 11.8531V7.81251C37.5 7.39811 37.6646 7.00068 37.9577 6.70766C38.2507 6.41463 38.6481 6.25001 39.0625 6.25001H42.1875C42.6019 6.25001 42.9993 6.41463 43.2924 6.70766C43.5854 7.00068 43.75 7.39811 43.75 7.81251V18.1031L49.5438 23.8938C49.8372 24.1872 50.002 24.5851 50.002 25C50.002 25.4149 49.8372 25.8129 49.5438 26.1063C49.2504 26.3997 48.8524 26.5645 48.4375 26.5645C48.0226 26.5645 47.6247 26.3997 47.3313 26.1063L46.875 25.6469V42.1875C46.875 43.4307 46.3812 44.623 45.5021 45.5021C44.623 46.3812 43.4307 46.875 42.1875 46.875H17.1875C15.9443 46.875 14.752 46.3812 13.873 45.5021C12.9939 44.623 12.5 43.4307 12.5 42.1875V25.6469L12.0438 26.1063C11.8985 26.2515 11.726 26.3668 11.5362 26.4454C11.3464 26.524 11.143 26.5645 10.9375 26.5645C10.7321 26.5645 10.5286 26.524 10.3388 26.4454C10.149 26.3668 9.97655 26.2515 9.83127 26.1063C9.686 25.961 9.57076 25.7885 9.49214 25.5987C9.41351 25.4089 9.37305 25.2055 9.37305 25C9.37305 24.7946 9.41351 24.5911 9.49214 24.4013C9.57076 24.2115 9.686 24.039 9.83127 23.8938L27.4781 6.25001ZM29.6875 8.45939L15.625 22.5219V42.1875C15.625 42.6019 15.7896 42.9993 16.0827 43.2924C16.3757 43.5854 16.7731 43.75 17.1875 43.75H42.1875C42.6019 43.75 42.9993 43.5854 43.2924 43.2924C43.5854 42.9993 43.75 42.6019 43.75 42.1875V22.5219L29.6875 8.45939Z" fill="black"/>
</g>
<defs>
<clipPath id="clip0_217_22">
<rect width="50" height="50" fill="white"/>
</clipPath>
</defs>
</svg>
