<svg width="84" height="88" viewBox="0 0 84 88" fill="none" xmlns="http://www.w3.org/2000/svg">
<g clip-path="url(#clip0_177_121)">
<rect width="83.3249" height="87.1714" rx="41.6624" fill="white"/>
<path d="M57.2859 32.6892C57.2859 37.0241 55.6399 41.1814 52.7099 44.2466C49.7799 47.3118 45.8061 49.0339 41.6625 49.0339C37.5189 49.0339 33.545 47.3118 30.6151 44.2466C27.6851 41.1814 26.0391 37.0241 26.0391 32.6892C26.0391 28.3544 27.6851 24.197 30.6151 21.1318C33.545 18.0666 37.5189 16.3446 41.6625 16.3446C45.8061 16.3446 49.7799 18.0666 52.7099 21.1318C55.6399 24.197 57.2859 28.3544 57.2859 32.6892Z" fill="#28516F"/>
<path fill-rule="evenodd" clip-rule="evenodd" d="M0 43.5857C0 32.026 4.38942 20.9399 12.2026 12.766C20.0159 4.59205 30.6129 0 41.6624 0C52.712 0 63.309 4.59205 71.1222 12.766C78.9355 20.9399 83.3249 32.026 83.3249 43.5857C83.3249 55.1453 78.9355 66.2315 71.1222 74.4054C63.309 82.5793 52.712 87.1714 41.6624 87.1714C30.6129 87.1714 20.0159 82.5793 12.2026 74.4054C4.38942 66.2315 0 55.1453 0 43.5857ZM41.6624 5.44821C34.7974 5.44859 28.072 7.47692 22.2603 11.2997C16.4485 15.1226 11.7867 20.5845 8.81142 27.0569C5.8361 33.5293 4.66821 40.749 5.44215 47.8852C6.21609 55.0213 8.90041 61.7838 13.1862 67.3944C16.8837 61.1616 25.0235 54.4821 41.6624 54.4821C58.3014 54.4821 66.436 61.1562 70.1387 67.3944C74.4245 61.7838 77.1088 55.0213 77.8827 47.8852C78.6567 40.749 77.4888 33.5293 74.5135 27.0569C71.5381 20.5845 66.8763 15.1226 61.0646 11.2997C55.2529 7.47692 48.5275 5.44859 41.6624 5.44821Z" fill="#28516F"/>
</g>
<defs>
<clipPath id="clip0_177_121">
<rect width="83.3249" height="87.1714" rx="41.6624" fill="white"/>
</clipPath>
</defs>
</svg>
