<svg width="40" height="40" viewBox="0 0 50 41" fill="none" xmlns="http://www.w3.org/2000/svg">
<path d="M25 25.2812C27.072 25.2813 29.0591 24.4581 30.5243 22.993C31.9894 21.5279 32.8125 19.5408 32.8125 17.4688C32.8125 15.3967 31.9894 13.4096 30.5243 11.9445C29.0591 10.4794 27.072 9.65625 25 9.65625C22.928 9.65625 20.9409 10.4794 19.4757 11.9445C18.0106 13.4096 17.1875 15.3967 17.1875 17.4688C17.1875 19.5408 18.0106 21.5279 19.4757 22.993C20.9409 24.4581 22.928 25.2812 25 25.2812Z" fill="black"/>
<path d="M3.125 0.125C2.2962 0.125 1.50134 0.45424 0.915291 1.04029C0.32924 1.62634 0 2.4212 0 3.25L0 37.625C0 38.4538 0.32924 39.2487 0.915291 39.8347C1.50134 40.4208 2.2962 40.75 3.125 40.75H4.6875C5.1019 40.75 5.5 40.75 6 40.75C6.3947 40.75 6.09875 40.75 6.3947 40.75C6.69064 40.75 6.662 40.75 7.08206 40.75C7.44483 40.75 7.3858 40.75 7.8002 40.75C8.2146 40.75 8.5 40.75 8.8825 40.75C9.265 40.75 10.0013 40.75 9.5 40.75C9.15367 40.75 9.63101 40.75 10 40.75C10.5 40.75 10.5231 40.75 10.9375 40.75H39.0625C39.4769 40.75 39.9273 40.75 40.2636 40.75C40.5999 40.75 40.6128 40.75 41.0826 40.75C41.376 40.75 41.376 40.75 41.7899 40.75C42.1875 40.75 42.1517 40.75 42.5661 40.75C42.9805 40.75 42.8765 40.75 43.1481 40.75C43.6267 40.75 43.5 40.75 43.6785 40.75C44.0536 40.75 43.9372 40.75 44.2476 40.75C44.5581 40.75 44.8981 40.75 45.3125 40.75H46.875C47.7038 40.75 48.4987 40.4208 49.0847 39.8347C49.6708 39.2487 50 38.4538 50 37.625V6.375C50 5.5462 49.6708 4.75134 49.0847 4.16529C48.4987 3.57924 47.7038 3.25 46.875 3.25H20.9594L18.75 1.04062C18.1641 0.454533 17.3694 0.125177 16.5406 0.125H3.125ZM3.125 3.25H16.5406L18.75 5.45937C19.3359 6.04547 20.1306 6.37482 20.9594 6.375H46.875V37.625H46.6094C45.5 37.625 45.5 37.625 44.5 37.625C43.6785 37.625 44 37.625 43.1481 37.625C42.2963 37.625 41.0826 37.625 40 37.625C39.5 36.5 39.4262 36.3121 39.1094 35.6562C37.3306 31.9739 32.9812 28.25 25 28.25C17.0156 28.25 12.6751 31.9815 10.8938 35.6562C10 37.5 10.8938 35.6562 10 37.625C9.3825 37.625 7.23564 37.625 6.3947 37.625C5.8947 37.625 5.375 37.625 4.6875 37.625C4 37.625 4 37.625 3.39375 37.625H3.125V3.25Z" fill="black"/>
</svg>
