<svg width="40" height="40" viewBox="0 0 50 50" fill="none" xmlns="http://www.w3.org/2000/svg">
<path d="M45.4502 9.8303L45.5486 9.875H45.6568H48.4381C48.7198 9.875 48.9901 9.98694 49.1894 10.1862C49.3886 10.3855 49.5005 10.6557 49.5005 10.9375V17.1875C49.5005 17.4693 49.3886 17.7395 49.1894 17.9388C48.9901 18.1381 48.7198 18.25 48.4381 18.25H46.8756H46.3756V18.75V40.625V41.1246L46.8752 41.125C47.1125 41.1252 47.3428 41.2048 47.5296 41.3511C47.7164 41.4975 47.8488 41.7021 47.9058 41.9325L47.9061 41.9338L49.4686 48.1838L49.4689 48.185C49.5084 48.3412 49.5116 48.5044 49.4783 48.662C49.445 48.8197 49.3761 48.9676 49.2768 49.0946C49.1775 49.2215 49.0505 49.324 48.9055 49.3943C48.7605 49.4645 48.6014 49.5007 48.4402 49.5H48.4381L1.56305 49.5L1.56087 49.5C1.39974 49.5007 1.24058 49.4645 1.09558 49.3943C0.950585 49.324 0.823586 49.2215 0.724306 49.0946C0.625027 48.9676 0.556101 48.8197 0.522801 48.662C0.489502 48.5044 0.492713 48.3412 0.53219 48.185L0.532497 48.1838L2.095 41.9338L2.09531 41.9325C2.15226 41.7021 2.28468 41.4975 2.47147 41.3511C2.65825 41.2048 2.88865 41.1252 3.12594 41.125L3.62555 41.1246V40.625V18.75V18.25H3.12555H1.56305C1.28126 18.25 1.01101 18.1381 0.81175 17.9388C0.612492 17.7395 0.500551 17.4693 0.500551 17.1875V10.9375C0.500551 10.6557 0.612492 10.3855 0.81175 10.1862C1.01101 9.98694 1.28126 9.875 1.56305 9.875H4.3443H4.45246L4.55094 9.8303L25.0006 0.549087L45.4502 9.8303ZM11.5897 8.92312L11.8037 9.875H38.2006L38.4145 8.9231L25.2145 2.6731L25.0005 2.57177L24.7865 2.67312L11.5897 8.92312ZM6.25055 18.25H5.75055V18.75V40.625V41.125H6.25055H9.37555H9.87555V40.625V18.75V18.25H9.37555H6.25055ZM12.5006 18.25H12.0006V18.75V40.625V41.125H12.5006H20.313H20.813V40.625V18.75V18.25H20.313H12.5006ZM23.438 18.25H22.938V18.75V40.625V41.125H23.438H26.5631H27.0631V40.625V18.75V18.25H26.5631H23.438ZM29.6881 18.25H29.1881V18.75V40.625V41.125H29.6881H37.5006H38.0006V40.625V18.75V18.25H37.5006H29.6881ZM40.6256 18.25H40.1256V18.75V40.625V41.125H40.6256H43.7506H44.2506V40.625V18.75V18.25H43.7506H40.6256ZM46.8756 16.125H47.3756V15.625V12.5V12H46.8756H3.12555H2.62555V12.5V15.625V16.125H3.12555H46.8756ZM46.1419 43.6287L46.0472 43.25H45.6568H4.3443H3.95391L3.85923 43.6287L3.07798 46.7537L2.92266 47.375H3.56305H46.438H47.0784L46.9231 46.7537L46.1419 43.6287Z" fill="black" stroke="black"/>
</svg>
