<svg width="40" height="40" viewBox="0 0 46 46" fill="none" xmlns="http://www.w3.org/2000/svg">
<path d="M4.25 45.5C4.25 45.5 0.5 45.5 0.5 41.75C0.5 38 4.25 26.75 23 26.75C41.75 26.75 45.5 38 45.5 41.75C45.5 45.5 41.75 45.5 41.75 45.5H4.25ZM34.25 11.75C34.25 14.7337 33.0647 17.5952 30.955 19.705C28.8452 21.8147 25.9837 23 23 23C20.0163 23 17.1548 21.8147 15.045 19.705C12.9353 17.5952 11.75 14.7337 11.75 11.75C11.75 8.76631 12.9353 5.90483 15.045 3.79505C17.1548 1.68526 20.0163 0.5 23 0.5C25.9837 0.5 28.8452 1.68526 30.955 3.79505C33.0647 5.90483 34.25 8.76631 34.25 11.75Z" fill="black"/>
</svg>
