<svg width="60" height="836" viewBox="0 0 60 836" fill="none" xmlns="http://www.w3.org/2000/svg">
<path d="M0 786C0 780.477 4.47715 776 10 776H50C55.5228 776 60 780.477 60 786V826C60 831.523 55.5228 836 50 836H10C4.47715 836 0 831.523 0 826V786Z" fill="#41DDF5"/>
<path d="M8.125 789.375C8.125 788.546 8.45424 787.751 9.04029 787.165C9.62634 786.579 10.4212 786.25 11.25 786.25H48.75C49.5788 786.25 50.3737 786.579 50.9597 787.165C51.5458 787.751 51.875 788.546 51.875 789.375H8.125ZM30 814.375C31.6576 814.375 33.2473 813.717 34.4194 812.544C35.5915 811.372 36.25 809.783 36.25 808.125C36.25 806.467 35.5915 804.878 34.4194 803.706C33.2473 802.533 31.6576 801.875 30 801.875C28.3424 801.875 26.7527 802.533 25.5806 803.706C24.4085 804.878 23.75 806.467 23.75 808.125C23.75 809.783 24.4085 811.372 25.5806 812.544C26.7527 813.717 28.3424 814.375 30 814.375Z" fill="black"/>
<path d="M5 795.625C5 794.796 5.32924 794.001 5.91529 793.415C6.50134 792.829 7.2962 792.5 8.125 792.5H51.875C52.7038 792.5 53.4987 792.829 54.0847 793.415C54.6708 794.001 55 794.796 55 795.625V820.625C55 821.454 54.6708 822.249 54.0847 822.835C53.4987 823.421 52.7038 823.75 51.875 823.75H8.125C7.2962 823.75 6.50134 823.421 5.91529 822.835C5.32924 822.249 5 821.454 5 820.625V795.625ZM14.375 795.625C14.375 797.283 13.7165 798.872 12.5444 800.044C11.3723 801.217 9.7826 801.875 8.125 801.875V814.375C9.7826 814.375 11.3723 815.033 12.5444 816.206C13.7165 817.378 14.375 818.967 14.375 820.625H45.625C45.625 818.967 46.2835 817.378 47.4556 816.206C48.6277 815.033 50.2174 814.375 51.875 814.375V801.875C50.2174 801.875 48.6277 801.217 47.4556 800.044C46.2835 798.872 45.625 797.283 45.625 795.625H14.375Z" fill="black"/>
<path d="M0 165C0 159.477 4.47715 155 10 155H50C55.5228 155 60 159.477 60 165V205C60 210.523 55.5228 215 50 215H10C4.47715 215 0 210.523 0 205V165Z" fill="#41DDF5"/>
<path d="M26.25 189.438C26.25 189.189 26.3488 188.95 26.5246 188.775C26.7004 188.599 26.9389 188.5 27.1875 188.5H32.8125C33.0611 188.5 33.2996 188.599 33.4754 188.775C33.6512 188.95 33.75 189.189 33.75 189.438C33.75 189.686 33.6512 189.925 33.4754 190.1C33.2996 190.276 33.0611 190.375 32.8125 190.375H27.1875C26.9389 190.375 26.7004 190.276 26.5246 190.1C26.3488 189.925 26.25 189.686 26.25 189.438ZM20.625 181.116C20.625 178.675 22.9406 176.809 25.3687 177.036C28.4496 177.324 31.5504 177.324 34.6312 177.036C37.0594 176.809 39.375 178.675 39.375 181.116V183.286C39.3838 183.701 39.2442 184.105 38.9812 184.427C38.7183 184.748 38.3493 184.965 37.9406 185.039C36.3562 185.314 33.5531 185.688 30 185.688C26.4469 185.688 23.6437 185.313 22.0594 185.039C21.6507 184.965 21.2817 184.748 21.0188 184.427C20.7558 184.105 20.6162 183.701 20.625 183.286V181.116ZM29.1412 179.566C29.0682 179.553 28.9932 179.558 28.9225 179.58C28.8517 179.603 28.7873 179.641 28.7344 179.693L27.0094 181.381C25.8361 181.31 24.6659 181.196 23.5012 181.038C23.3806 181.026 23.2599 181.061 23.1647 181.136C23.0694 181.211 23.007 181.32 22.9905 181.44C22.974 181.56 23.0047 181.682 23.0762 181.78C23.1476 181.878 23.2543 181.945 23.3737 181.966C24.405 182.108 25.6837 182.245 27.1612 182.328C27.2263 182.331 27.2915 182.321 27.3525 182.298C27.4135 182.275 27.4691 182.24 27.5156 182.194L28.9294 180.814L30.5175 184.021C30.551 184.088 30.6001 184.146 30.6607 184.19C30.7214 184.235 30.7918 184.264 30.8661 184.275C30.9404 184.287 31.0163 184.28 31.0874 184.256C31.1586 184.232 31.2229 184.191 31.275 184.137L33.0225 182.318C34.2278 182.247 35.43 182.13 36.6262 181.966C36.7457 181.945 36.8524 181.878 36.9238 181.78C36.9953 181.682 37.026 181.56 37.0095 181.44C36.993 181.32 36.9305 181.211 36.8353 181.136C36.7401 181.061 36.6194 181.026 36.4987 181.038C35.49 181.176 34.2356 181.309 32.7862 181.392C32.6682 181.398 32.5571 181.449 32.475 181.534L31.0612 183.006L29.4825 179.819C29.4496 179.753 29.4015 179.695 29.3422 179.651C29.2829 179.607 29.214 179.578 29.1412 179.566Z" fill="black"/>
<path d="M30.9375 169.499C31.295 169.292 31.5743 168.974 31.7323 168.593C31.8902 168.211 31.9179 167.788 31.8111 167.39C31.7043 166.991 31.4689 166.639 31.1414 166.387C30.814 166.136 30.4128 166 30 166C29.5872 166 29.186 166.136 28.8586 166.387C28.5311 166.639 28.2957 166.991 28.1889 167.39C28.0821 167.788 28.1098 168.211 28.2677 168.593C28.4257 168.974 28.705 169.292 29.0625 169.499V171.625H25.3125C23.0747 171.625 20.9286 172.514 19.3463 174.096C17.7639 175.679 16.875 177.825 16.875 180.063V181C16.3777 181 15.9008 181.198 15.5492 181.549C15.1975 181.901 15 182.378 15 182.875V186.625C15 187.122 15.1975 187.599 15.5492 187.951C15.9008 188.303 16.3777 188.5 16.875 188.5V190.375C16.875 191.37 17.2701 192.323 17.9733 193.027C18.6766 193.73 19.6304 194.125 20.625 194.125H39.375C40.3696 194.125 41.3234 193.73 42.0266 193.027C42.7299 192.323 43.125 191.37 43.125 190.375V188.5C43.6223 188.5 44.0992 188.303 44.4508 187.951C44.8025 187.599 45 187.122 45 186.625V182.875C45 182.378 44.8025 181.901 44.4508 181.549C44.0992 181.198 43.6223 181 43.125 181V180.063C43.125 177.825 42.2361 175.679 40.6537 174.096C39.0714 172.514 36.9253 171.625 34.6875 171.625H30.9375V169.499ZM41.25 180.063V190.375C41.25 190.872 41.0525 191.349 40.7008 191.701C40.3492 192.053 39.8723 192.25 39.375 192.25H20.625C20.1277 192.25 19.6508 192.053 19.2992 191.701C18.9475 191.349 18.75 190.872 18.75 190.375V180.063C18.75 178.322 19.4414 176.653 20.6721 175.422C21.9028 174.191 23.572 173.5 25.3125 173.5H34.6875C36.428 173.5 38.0972 174.191 39.3279 175.422C40.5586 176.653 41.25 178.322 41.25 180.063Z" fill="black"/>
<path d="M48.75 165.125C49.5788 165.125 50.3737 165.454 50.9597 166.04C51.5458 166.626 51.875 167.421 51.875 168.25V193.25C51.875 194.079 51.5458 194.874 50.9597 195.46C50.3737 196.046 49.5788 196.375 48.75 196.375H18.7937C17.1363 196.375 15.5468 197.034 14.375 198.206L8.125 204.456V168.25C8.125 167.421 8.45424 166.626 9.04029 166.04C9.62634 165.454 10.4212 165.125 11.25 165.125H48.75ZM11.25 162C9.5924 162 8.00269 162.658 6.83058 163.831C5.65848 165.003 5 166.592 5 168.25L5 208.228C5.00007 208.537 5.09185 208.84 5.26374 209.096C5.43563 209.353 5.6799 209.554 5.96562 209.672C6.25135 209.79 6.56569 209.821 6.86886 209.76C7.17203 209.699 7.45041 209.55 7.66875 209.331L16.5844 200.416C17.1703 199.83 17.965 199.5 18.7937 199.5H48.75C50.4076 199.5 51.9973 198.842 53.1694 197.669C54.3415 196.497 55 194.908 55 193.25V168.25C55 166.592 54.3415 165.003 53.1694 163.831C51.9973 162.658 50.4076 162 48.75 162H11.25Z" fill="black"/>
<path d="M0 244C0 238.477 4.47715 234 10 234H50C55.5228 234 60 238.477 60 244V284C60 289.523 55.5228 294 50 294H10C4.47715 294 0 289.523 0 284V244Z" fill="#41DDF5"/>
<g clip-path="url(#clip0_60_44)">
<path d="M30 267.281C32.072 267.281 34.0591 266.458 35.5243 264.993C36.9894 263.528 37.8125 261.541 37.8125 259.469C37.8125 257.397 36.9894 255.41 35.5243 253.944C34.0591 252.479 32.072 251.656 30 251.656C27.928 251.656 25.9409 252.479 24.4757 253.944C23.0106 255.41 22.1875 257.397 22.1875 259.469C22.1875 261.541 23.0106 263.528 24.4757 264.993C25.9409 266.458 27.928 267.281 30 267.281Z" fill="black"/>
<path d="M8.125 242.125C7.2962 242.125 6.50134 242.454 5.91529 243.04C5.32924 243.626 5 244.421 5 245.25L5 279.625C5 280.454 5.32924 281.249 5.91529 281.835C6.50134 282.421 7.2962 282.75 8.125 282.75H9.6875C10.1019 282.75 10.5 282.75 11 282.75C11.3947 282.75 11.0988 282.75 11.3947 282.75C11.6906 282.75 11.662 282.75 12.0821 282.75C12.4448 282.75 12.3858 282.75 12.8002 282.75C13.2146 282.75 13.5 282.75 13.8825 282.75C14.265 282.75 15.0013 282.75 14.5 282.75C14.1537 282.75 14.631 282.75 15 282.75C15.5 282.75 15.5231 282.75 15.9375 282.75H44.0625C44.4769 282.75 44.9273 282.75 45.2636 282.75C45.5999 282.75 45.6128 282.75 46.0826 282.75C46.376 282.75 46.376 282.75 46.7899 282.75C47.1875 282.75 47.1517 282.75 47.5661 282.75C47.9805 282.75 47.8765 282.75 48.1481 282.75C48.6267 282.75 48.5 282.75 48.6785 282.75C49.0536 282.75 48.9372 282.75 49.2476 282.75C49.5581 282.75 49.8981 282.75 50.3125 282.75H51.875C52.7038 282.75 53.4987 282.421 54.0847 281.835C54.6708 281.249 55 280.454 55 279.625V248.375C55 247.546 54.6708 246.751 54.0847 246.165C53.4987 245.579 52.7038 245.25 51.875 245.25H25.9594L23.75 243.041C23.1641 242.455 22.3694 242.125 21.5406 242.125H8.125ZM8.125 245.25H21.5406L23.75 247.459C24.3359 248.045 25.1306 248.375 25.9594 248.375H51.875V279.625H51.6094C50.5 279.625 50.5 279.625 49.5 279.625C48.6785 279.625 49 279.625 48.1481 279.625C47.2963 279.625 46.0826 279.625 45 279.625C44.5 278.5 44.4262 278.312 44.1094 277.656C42.3306 273.974 37.9813 270.25 30 270.25C22.0156 270.25 17.6751 273.982 15.8938 277.656C15 279.5 15.8938 277.656 15 279.625C14.3825 279.625 12.2356 279.625 11.3947 279.625C10.8947 279.625 10.375 279.625 9.6875 279.625C9 279.625 9 279.625 8.39375 279.625H8.125V245.25Z" fill="black"/>
</g>
<path d="M0 88C0 82.4772 4.47715 78 10 78H50C55.5228 78 60 82.4772 60 88V128C60 133.523 55.5228 138 50 138H10C4.47715 138 0 133.523 0 128V88Z" fill="#41DDF5"/>
<g clip-path="url(#clip1_60_44)">
<path d="M30.0006 82L50.6568 91.375H53.4381C53.8525 91.375 54.2499 91.5396 54.5429 91.8326C54.8359 92.1257 55.0005 92.5231 55.0005 92.9375V99.1875C55.0005 99.6019 54.8359 99.9993 54.5429 100.292C54.2499 100.585 53.8525 100.75 53.4381 100.75H51.8756V122.625C52.2245 122.625 52.5633 122.742 52.838 122.958C53.1127 123.173 53.3074 123.474 53.3912 123.812L54.9537 130.062C55.0118 130.293 55.0166 130.533 54.9675 130.765C54.9184 130.998 54.8169 131.216 54.6706 131.403C54.5243 131.59 54.3372 131.741 54.1236 131.844C53.9099 131.948 53.6755 132.001 53.4381 132H6.56305C6.32565 132.001 6.09115 131.948 5.87752 131.844C5.66388 131.741 5.47676 131.59 5.33049 131.403C5.18421 131.216 5.08266 130.998 5.0336 130.765C4.98453 130.533 4.98926 130.293 5.04743 130.062L6.60993 123.812C6.69367 123.474 6.88841 123.173 7.16309 122.958C7.43778 122.742 7.7766 122.625 8.12555 122.625V100.75H6.56305C6.14865 100.75 5.75122 100.585 5.4582 100.292C5.16517 99.9993 5.00055 99.6019 5.00055 99.1875V92.9375C5.00055 92.5231 5.16517 92.1257 5.4582 91.8326C5.75122 91.5396 6.14865 91.375 6.56305 91.375H9.3443L30.0006 82ZM16.8037 91.375H43.2006L30.0006 85.125L16.8037 91.375ZM11.2506 100.75V122.625H14.3756V100.75H11.2506ZM17.5006 100.75V122.625H25.313V100.75H17.5006ZM28.438 100.75V122.625H31.5631V100.75H28.438ZM34.6881 100.75V122.625H42.5006V100.75H34.6881ZM45.6256 100.75V122.625H48.7506V100.75H45.6256ZM51.8756 97.625V94.5H8.12555V97.625H51.8756ZM50.6568 125.75H9.3443L8.56305 128.875H51.438L50.6568 125.75Z" fill="black"/>
</g>
<path d="M0 10C0 4.47715 4.47715 0 10 0H50C55.5228 0 60 4.47715 60 10V50C60 55.5228 55.5228 60 50 60H10C4.47715 60 0 55.5228 0 50V10Z" fill="#41DDF5"/>
<path d="M11.25 52.5C11.25 52.5 7.5 52.5 7.5 48.75C7.5 45 11.25 33.75 30 33.75C48.75 33.75 52.5 45 52.5 48.75C52.5 52.5 48.75 52.5 48.75 52.5H11.25ZM41.25 18.75C41.25 21.7337 40.0647 24.5952 37.955 26.705C35.8452 28.8147 32.9837 30 30 30C27.0163 30 24.1548 28.8147 22.045 26.705C19.9353 24.5952 18.75 21.7337 18.75 18.75C18.75 15.7663 19.9353 12.9048 22.045 10.795C24.1548 8.68526 27.0163 7.5 30 7.5C32.9837 7.5 35.8452 8.68526 37.955 10.795C40.0647 12.9048 41.25 15.7663 41.25 18.75Z" fill="black"/>
<defs>
<clipPath id="clip0_60_44">
<rect width="50" height="50" fill="white" transform="translate(5 239)"/>
</clipPath>
<clipPath id="clip1_60_44">
<rect width="50" height="50" fill="white" transform="translate(5 82)"/>
</clipPath>
</defs>
</svg>
