<svg width="32" height="28" viewBox="0 0 32 28" fill="none" xmlns="http://www.w3.org/2000/svg">
<path d="M32.0922 13.7043C32.0921 13.9002 32.0344 14.0918 31.9263 14.2552C31.8182 14.4187 31.6644 14.5467 31.4841 14.6235L2.68227 26.9668C2.42857 27.0754 2.14982 27.112 1.87668 27.0724C1.60355 27.0329 1.34662 26.9187 1.13419 26.7425C0.92175 26.5663 0.762037 26.335 0.672625 26.0739C0.583214 25.8128 0.56757 25.5321 0.627416 25.2626L3.19704 13.7043L0.627421 2.14592C0.567084 1.87623 0.582423 1.59511 0.671746 1.33359C0.761069 1.07207 0.920904 0.840306 1.13361 0.663877C1.34632 0.487448 1.60364 0.37321 1.87717 0.333771C2.1507 0.294333 2.4298 0.331225 2.68369 0.440378L31.4827 12.7865C31.663 12.8632 31.8167 12.9913 31.9249 13.1547C32.033 13.3182 32.0907 13.5097 32.0908 13.7057L32.0922 13.7043ZM5.02138 14.7027L2.79116 24.7422L26.2176 14.7027L5.02138 14.7027ZM26.2176 12.703L2.79117 2.66352L5.02421 12.703L26.2176 12.703Z" fill="white"/>
</svg>
